#!OML:ASF G:\JayActor3\Patient Classification 1\Patient 1\Session 6\male.ASF
:FULLY-SPECIFIED
:DEGREES
2079
root -10.559 16.5767 -4.93515 366.074 -50.6179 -345.817
lowerback 19.5874 -2.33005 3.61123
upperback -0.913215 -2.42602 -1.34763
thorax -12.2879 -1.42484 -2.83744
lowerneck 9.39773 -14.9294 -4.44686
upperneck -38.946 -18.197 19.2298
head -11.817 -10.7462 10.2455
rclavicle 9.02482e-014 -1.35174e-014
rhumerus -33.3387 9.58086 -93.0378
rradius 88.453
rwrist 21.3154
rhand -64.3829 25.0281
rfingers 7.12502
rthumb -36.3136 -1.2107
lclavicle 9.02482e-014 -1.35174e-014
lhumerus -58.2576 15.5733 76.4125
lradius 31.9265
lwrist 33.6718
lhand -0.671616 21.7032
lfingers 7.12502
lthumb 24.9469 50.0948
rfemur -40.6945 -1.43282 13.474
rtibia 48.1136
rfoot -24.4309 -9.23198
rtoes 9.26758
lfemur -21.6144 11.7172 -28.0522
ltibia 14.4916
lfoot 7.78392 -34.4899
ltoes 29.5405
2080
root -10.581 16.5803 -4.93256 366.189 -50.3604 -346.311
lowerback 19.5041 -2.3322 3.61999
upperback -0.957907 -2.41981 -1.27404
thorax -12.2874 -1.41988 -2.7634
lowerneck 9.43066 -14.9688 -4.47407
upperneck -38.8279 -18.2355 19.2662
head -11.7596 -10.7612 10.2433
rclavicle 1.74931e-014 -4.92986e-014
rhumerus -33.4302 9.30815 -92.9712
rradius 88.4395
rwrist 21.3349
rhand -64.3889 25.1331
rfingers 7.12502
rthumb -36.3193 -1.10437
lclavicle 1.74931e-014 -4.92986e-014
lhumerus -58.2891 15.6459 76.3469
lradius 31.845
lwrist 33.5254
lhand -0.731348 21.6908
lfingers 7.12502
lthumb 24.8897 50.0903
rfemur -40.1145 -1.5518 13.8743
rtibia 47.8564
rfoot -24.5155 -9.29616
rtoes 9.34919
lfemur -21.1946 11.2144 -27.4964
ltibia 14.4968
lfoot 7.1079 -34.267
ltoes 29.066
2081
root -10.6024 16.5835 -4.92984 366.324 -50.1292 -346.795
lowerback 19.3953 -2.3236 3.6167
upperback -1.01424 -2.40302 -1.20056
thorax -12.2841 -1.40938 -2.68629
lowerneck 9.46189 -15.0069 -4.50011
upperneck -38.7041 -18.27 19.3069
head -11.6998 -10.7753 10.2412
rclavicle -9.14409e-015 7.95139e-015
rhumerus -33.5295 9.03342 -92.9024
rradius 88.4235
rwrist 21.3465
rhand -64.374 25.2754
rfingers 7.12502
rthumb -36.3051 -0.965592
lclavicle -9.14409e-015 7.95139e-015
lhumerus -58.3318 15.6983 76.2954
lradius 31.7732
lwrist 33.4153
lhand -0.8307 21.6919
lfingers 7.12502
lthumb 24.7945 50.1046
rfemur -39.5779 -1.65218 14.2648
rtibia 47.5987
rfoot -24.5909 -9.35761
rtoes 9.39765
lfemur -20.8205 10.7021 -26.9555
ltibia 14.515
lfoot 6.41897 -34.0167
ltoes 28.5783
2082
root -10.6232 16.5864 -4.9272 366.487 -49.9335 -347.263
lowerback 19.2522 -2.29922 3.59424
upperback -1.08496 -2.3709 -1.12736
thorax -12.2754 -1.39069 -2.60383
lowerneck 9.48983 -15.047 -4.52039
upperneck -38.5774 -18.3064 19.3471
head -11.6389 -10.7909 10.2374
rclavicle -7.15625e-015 3.57812e-014
rhumerus -33.6339 8.75643 -92.8292
rradius 88.4031
rwrist 21.3491
rhand -64.3425 25.4262
rfingers 7.12502
rthumb -36.2754 -0.822141
lclavicle -7.15625e-015 3.57812e-014
lhumerus -58.3835 15.7242 76.268
lradius 31.7144
lwrist 33.3482
lhand -0.976195 21.6996
lfingers 7.12502
lthumb 24.655 50.1314
rfemur -39.1039 -1.73352 14.643
rtibia 47.3451
rfoot -24.649 -9.41253
rtoes 9.42125
lfemur -20.5112 10.1779 -26.4346
ltibia 14.5581
lfoot 5.69485 -33.7351
ltoes 28.0616
2083
root -10.6435 16.589 -4.92479 366.673 -49.7676 -347.716
lowerback 19.0795 -2.26016 3.55065
upperback -1.16884 -2.32495 -1.05316
thorax -12.2625 -1.36427 -2.51283
lowerneck 9.51636 -15.0846 -4.54455
upperneck -38.445 -18.3386 19.3902
head -11.5753 -10.8046 10.2339
rclavicle 4.57205e-014 1.51076e-014
rhumerus -33.7431 8.4809 -92.7507
rradius 88.3737
rwrist 21.3553
rhand -64.3139 25.5409
rfingers 7.12502
rthumb -36.2483 -0.714188
lclavicle 4.57205e-014 1.51076e-014
lhumerus -58.4407 15.7617 76.2272
lradius 31.6403
lwrist 33.267
lhand -1.15116 21.7106
lfingers 7.12502
lthumb 24.4873 50.1652
rfemur -38.6844 -1.79999 15.0107
rtibia 47.0963
rfoot -24.6923 -9.45587
rtoes 9.44927
lfemur -20.2603 9.6476 -25.9315
ltibia 14.6265
lfoot 4.95257 -33.4248
ltoes 27.528
2084
root -10.6635 16.5913 -4.92252 366.88 -49.6285 -348.163
lowerback 18.8859 -2.20921 3.49057
upperback -1.26343 -2.26724 -0.976641
thorax -12.2481 -1.33132 -2.41367
lowerneck 9.5411 -15.1194 -4.56669
upperneck -38.3084 -18.3668 19.4309
head -11.5111 -10.8164 10.2284
rclavicle -4.65156e-014 3.89618e-014
rhumerus -33.8589 8.20769 -92.6706
rradius 88.336
rwrist 21.3676
rhand -64.294 25.5932
rfingers 7.12502
rthumb -36.2294 -0.666647
lclavicle -4.65156e-014 3.89618e-014
lhumerus -58.5065 15.8005 76.1806
lradius 31.5619
lwrist 33.1867
lhand -1.33568 21.7248
lfingers 7.12502
lthumb 24.3104 50.2032
rfemur -38.3061 -1.8535 15.3742
rtibia 46.851
rfoot -24.7186 -9.49319
rtoes 9.45661
lfemur -20.0531 9.13761 -25.4431
ltibia 14.712
lfoot 4.22511 -33.1033
ltoes 26.9985
2085
root -10.6842 16.5935 -4.92048 367.073 -49.4791 -348.61
lowerback 18.7132 -2.1588 3.42261
upperback -1.36306 -2.21041 -0.894477
thorax -12.2511 -1.29822 -2.30284
lowerneck 9.57486 -15.1514 -4.59203
upperneck -38.1702 -18.3925 19.468
head -11.4487 -10.8258 10.2231
rclavicle 4.8901e-014 -5.24792e-014
rhumerus -33.992 7.93438 -92.5859
rradius 88.29
rwrist 21.3834
rhand -64.3028 25.6321
rfingers 7.12502
rthumb -36.2377 -0.625699
lclavicle 4.8901e-014 -5.24792e-014
lhumerus -58.5863 15.8441 76.1198
lradius 31.4699
lwrist 33.0874
lhand -1.50696 21.736
lfingers 7.12502
lthumb 24.1462 50.2363
rfemur -37.9102 -1.90606 15.739
rtibia 46.6043
rfoot -24.746 -9.53579
rtoes 9.45491
lfemur -19.8389 8.64055 -24.9548
ltibia 14.806
lfoot 3.53584 -32.7937
ltoes 26.4962
2086
root -10.7059 16.5958 -4.91862 367.25 -49.3108 -349.064
lowerback 18.5739 -2.117 3.34889
upperback -1.46559 -2.16385 -0.802971
thorax -12.277 -1.26928 -2.17449
lowerneck 9.60515 -15.1787 -4.61885
upperneck -38.0163 -18.4129 19.4979
head -11.3813 -10.8316 10.2124
rclavicle -3.10104e-014 7.95139e-016
rhumerus -34.1411 7.67645 -92.5021
rradius 88.2369
rwrist 21.3939
rhand -64.3296 25.6607
rfingers 7.12502
rthumb -36.2631 -0.590725
lclavicle -3.10104e-014 7.95139e-016
lhumerus -58.6891 15.8935 76.0461
lradius 31.3755
lwrist 32.971
lhand -1.64014 21.7353
lfingers 7.12502
lthumb 24.0185 50.2525
rfemur -37.4801 -1.96047 16.1121
rtibia 46.3525
rfoot -24.7781 -9.58689
rtoes 9.44693
lfemur -19.6017 8.15325 -24.4589
ltibia 14.9013
lfoot 2.87927 -32.4963
ltoes 26.0047
2087
root -10.7283 16.5983 -4.91682 367.417 -49.1201 -349.54
lowerback 18.4657 -2.08481 3.28897
upperback -1.56568 -2.12484 -0.703834
thorax -12.3191 -1.24447 -2.0426
lowerneck 9.63781 -15.2043 -4.64317
upperneck -37.8609 -18.4314 19.5252
head -11.3149 -10.8364 10.2008
rclavicle 6.36111e-014 3.97569e-015
rhumerus -34.2991 7.42353 -92.4179
rradius 88.1803
rwrist 21.3943
rhand -64.3643 25.6852
rfingers 7.12502
rthumb -36.296 -0.558006
lclavicle 6.36111e-014 3.97569e-015
lhumerus -58.8025 15.935 75.9691
lradius 31.279
lwrist 32.8418
lhand -1.72315 21.7242
lfingers 7.12502
lthumb 23.9389 50.2519
rfemur -37.009 -2.01622 16.5024
rtibia 46.0908
rfoot -24.8193 -9.64776
rtoes 9.44488
lfemur -19.3328 7.65399 -23.9419
ltibia 14.9916
lfoot 2.23876 -32.1971
ltoes 25.5255
2088
root -10.7512 16.6008 -4.91491 367.575 -48.916 -350.029
lowerback 18.3774 -2.06061 3.23788
upperback -1.66159 -2.09303 -0.598836
thorax -12.3688 -1.22325 -1.90669
lowerneck 9.67106 -15.2292 -4.66422
upperneck -37.7059 -18.4484 19.5526
head -11.2498 -10.8409 10.1891
rclavicle -2.20651e-014 2.3059e-014
rhumerus -34.4587 7.19102 -92.3347
rradius 88.1174
rwrist 21.3742
rhand -64.4011 25.7038
rfingers 7.12502
rthumb -36.3309 -0.530754
lclavicle -2.20651e-014 2.3059e-014
lhumerus -58.9225 15.9727 75.8876
lradius 31.1821
lwrist 32.696
lhand -1.74601 21.6976
lfingers 7.12502
lthumb 23.917 50.2281
rfemur -36.508 -2.06836 16.9027
rtibia 45.8186
rfoot -24.8655 -9.71926
rtoes 9.46039
lfemur -19.0421 7.1402 -23.4134
ltibia 15.0775
lfoot 1.59495 -31.8891
ltoes 25.0327
2089
root -10.7744 16.6034 -4.91291 367.733 -48.7082 -350.528
lowerback 18.2968 -2.03728 3.19202
upperback -1.75284 -2.06001 -0.486028
thorax -12.4176 -1.20129 -1.76529
lowerneck 9.6935 -15.2572 -4.68525
upperneck -37.5529 -18.4711 19.5778
head -11.183 -10.8479 10.1757
rclavicle 1.09729e-013 -1.19271e-014
rhumerus -34.6102 6.97557 -92.2417
rradius 88.0516
rwrist 21.3337
rhand -64.4245 25.7229
rfingers 7.12502
rthumb -36.3529 -0.506109
lclavicle 1.09729e-013 -1.19271e-014
lhumerus -59.039 16.0022 75.8155
lradius 31.0859
lwrist 32.5359
lhand -1.71405 21.6628
lfingers 7.12502
lthumb 23.9476 50.1893
rfemur -35.9924 -2.10834 17.31
rtibia 45.5344
rfoot -24.9149 -9.80416
rtoes 9.48628
lfemur -18.7433 6.60593 -22.8772
ltibia 15.1612
lfoot 0.925878 -31.5573
ltoes 24.4982
2090
root -10.7978 16.6061 -4.91075 367.895 -48.5034 -351.026
lowerback 18.2072 -2.01651 3.14426
upperback -1.8409 -2.03083 -0.370659
thorax -12.4578 -1.18068 -1.61909
lowerneck 9.71774 -15.2833 -4.70111
upperneck -37.4067 -18.49 19.6057
head -11.1204 -10.8543 10.1642
rclavicle 7.95139e-015 0
rhumerus -34.7537 6.78707 -92.1534
rradius 87.9821
rwrist 21.288
rhand -64.4307 25.7384
rfingers 7.12502
rthumb -36.3589 -0.489104
lclavicle 7.95139e-015 0
lhumerus -59.1568 16.0229 75.7471
lradius 31.0008
lwrist 32.3765
lhand -1.64714 21.6261
lfingers 7.12502
lthumb 24.0118 50.1442
rfemur -35.4768 -2.13224 17.7164
rtibia 45.2388
rfoot -24.9661 -9.90251
rtoes 9.51835
lfemur -18.4489 6.04758 -22.3428
ltibia 15.2425
lfoot 0.231498 -31.1931
ltoes 23.9256
2091
root -10.8212 16.6089 -4.9085 368.069 -48.3032 -351.528
lowerback 18.1035 -1.99768 3.09896
upperback -1.92684 -2.0039 -0.25302
thorax -12.4875 -1.161 -1.47147
lowerneck 9.74092 -15.3082 -4.7158
upperneck -37.2642 -18.507 19.6359
head -11.0594 -10.8605 10.1539
rclavicle 2.127e-014 -1.90833e-014
rhumerus -34.889 6.63212 -92.0719
rradius 87.9038
rwrist 21.2498
rhand -64.4284 25.7577
rfingers 7.12502
rthumb -36.3567 -0.470391
lclavicle 2.127e-014 -1.90833e-014
lhumerus -59.2741 16.0458 75.6694
lradius 30.9185
lwrist 32.201
lhand -1.56392 21.5889
lfingers 7.12502
lthumb 24.0916 50.0964
rfemur -34.9676 -2.13659 18.1244
rtibia 44.9313
rfoot -25.0222 -10.0118
rtoes 9.57367
lfemur -18.1649 5.45511 -21.8063
ltibia 15.3218
lfoot -0.493538 -30.7822
ltoes 23.3008
